<svg width="26" height="26" viewBox="0 0 26 26" fill="none" xmlns="http://www.w3.org/2000/svg">
<path d="M16.4874 17.2813L18.2374 15.5313C18.4731 15.2985 18.7713 15.1392 19.0959 15.0726C19.4204 15.006 19.7572 15.0351 20.0655 15.1563L22.1984 16.0078C22.5099 16.1343 22.7771 16.3502 22.9662 16.6282C23.1552 16.9063 23.2578 17.2341 23.2609 17.5703V21.4766C23.259 21.7053 23.211 21.9313 23.1195 22.141C23.028 22.3507 22.8951 22.5396 22.7287 22.6966C22.5623 22.8535 22.3658 22.9751 22.1512 23.0541C21.9365 23.1331 21.7081 23.1679 21.4796 23.1563C6.5343 22.2266 3.51867 9.57034 2.94836 4.72659C2.92189 4.48873 2.94608 4.24796 3.01934 4.02012C3.0926 3.79228 3.21327 3.58253 3.37341 3.40467C3.53356 3.22681 3.72955 3.08488 3.94849 2.98821C4.16742 2.89153 4.40435 2.84231 4.64367 2.84378H8.41711C8.75384 2.84478 9.08257 2.94649 9.36101 3.13584C9.63946 3.32518 9.8549 3.5935 9.97961 3.90628L10.8312 6.03909C10.9564 6.34618 10.9883 6.68335 10.923 7.00848C10.8577 7.33361 10.6981 7.63229 10.464 7.86722L8.71399 9.61722C8.71399 9.61722 9.7218 16.4375 16.4874 17.2813Z" fill="white"/>
</svg>
