<svg width="98" height="70" viewBox="0 0 98 70" fill="none" xmlns="http://www.w3.org/2000/svg">
<path d="M25.2197 69.25C20.5531 69.25 16.3031 68.0833 12.4697 65.75C8.80306 63.25 5.88639 59.9167 3.71973 55.75C1.55306 51.4167 0.469727 46.5 0.469727 41C0.469727 36.6667 1.38639 32.4167 3.21973 28.25C5.05306 24.0833 7.55306 20.1667 10.7197 16.5C14.0531 12.8333 17.8864 9.58334 22.2197 6.75001C26.5531 3.91667 31.2197 1.75 36.2197 0.25L45.7197 11.75C39.2197 14.75 33.8864 18.1667 29.7197 22C25.5531 25.8333 23.4697 29.1667 23.4697 32C23.4697 34.1667 24.3864 36.0833 26.2197 37.75C28.0531 39.4167 29.7197 40.9167 31.2197 42.25C34.8864 45.25 37.3031 47.75 38.4697 49.75C39.8031 51.75 40.4697 53.8333 40.4697 56C40.4697 60 39.0531 63.25 36.2197 65.75C33.3864 68.0833 29.7197 69.25 25.2197 69.25ZM76.9697 69.25C72.3031 69.25 68.0531 68.0833 64.2197 65.75C60.5531 63.25 57.6364 59.9167 55.4697 55.75C53.3031 51.4167 52.2197 46.5 52.2197 41C52.2197 36.6667 53.1364 32.4167 54.9697 28.25C56.8031 24.0833 59.3031 20.1667 62.4697 16.5C65.8031 12.8333 69.6364 9.58334 73.9697 6.75001C78.3031 3.91667 82.9697 1.75 87.9697 0.25L97.4697 11.75C90.9697 14.75 85.6364 18.1667 81.4697 22C77.3031 25.8333 75.2197 29.1667 75.2197 32C75.2197 34.1667 76.1364 36.0833 77.9697 37.75C79.8031 39.4167 81.4697 40.9167 82.9697 42.25C86.6364 45.25 89.0531 47.75 90.2197 49.75C91.5531 51.75 92.2197 53.8333 92.2197 56C92.2197 60 90.8031 63.25 87.9697 65.75C85.1364 68.0833 81.4697 69.25 76.9697 69.25Z" fill="white" fill-opacity="0.25"/>
</svg>
